<svg width="31" height="30" viewBox="0 0 31 30" fill="none" xmlns="http://www.w3.org/2000/svg">
<path d="M24.75 0.625C26.3855 0.625 27.9541 1.2747 29.1105 2.43117C30.267 3.58765 30.9167 5.15617 30.9167 6.79167V19.125C30.9167 20.7605 30.267 22.329 29.1105 23.4855C27.9541 24.642 26.3855 25.2917 24.75 25.2917H17.4672L10.1258 29.6962C9.9047 29.8289 9.65386 29.904 9.39623 29.9147C9.13861 29.9253 8.88242 29.8712 8.65112 29.7572C8.41982 29.6433 8.22081 29.4731 8.07228 29.2623C7.92376 29.0516 7.83047 28.8069 7.80096 28.5508L7.79171 28.375V25.2917H6.25004C4.66792 25.2917 3.14631 24.6836 1.99996 23.5932C0.853598 22.5028 0.170189 21.0135 0.0910825 19.4333L0.083374 19.125V6.79167C0.083374 5.15617 0.733075 3.58765 1.88955 2.43117C3.04602 1.2747 4.61454 0.625 6.25004 0.625H24.75ZM20.4334 14.9409C20.1414 14.6547 19.7477 14.4963 19.3389 14.5003C18.9301 14.5043 18.5397 14.6706 18.2535 14.9625C17.8946 15.3289 17.4662 15.62 16.9934 15.8187C16.5206 16.0174 16.0129 16.1198 15.5 16.1198C14.9872 16.1198 14.4795 16.0174 14.0067 15.8187C13.5339 15.62 13.1055 15.3289 12.7466 14.9625C12.459 14.6773 12.0706 14.5168 11.6655 14.5157C11.2605 14.5146 10.8713 14.673 10.582 14.9565C10.2928 15.2401 10.1267 15.6261 10.1198 16.0311C10.1129 16.4361 10.2657 16.8276 10.5451 17.1208C11.191 17.78 11.962 18.3036 12.8128 18.6611C13.6636 19.0185 14.5772 19.2026 15.5 19.2026C16.4229 19.2026 17.3365 19.0185 18.1873 18.6611C19.0381 18.3036 19.809 17.78 20.455 17.1208C20.7411 16.8289 20.8996 16.4352 20.8956 16.0264C20.8915 15.6176 20.7253 15.2272 20.4334 14.9409ZM11.6613 8.33333H11.6459C11.237 8.33333 10.8449 8.49576 10.5558 8.78488C10.2666 9.074 10.1042 9.46613 10.1042 9.875C10.1042 10.2839 10.2666 10.676 10.5558 10.9651C10.8449 11.2542 11.237 11.4167 11.6459 11.4167H11.6613C12.0702 11.4167 12.4623 11.2542 12.7514 10.9651C13.0405 10.676 13.203 10.2839 13.203 9.875C13.203 9.46613 13.0405 9.074 12.7514 8.78488C12.4623 8.49576 12.0702 8.33333 11.6613 8.33333ZM19.3696 8.33333H19.3542C18.9453 8.33333 18.5532 8.49576 18.2641 8.78488C17.975 9.074 17.8125 9.46613 17.8125 9.875C17.8125 10.2839 17.975 10.676 18.2641 10.9651C18.5532 11.2542 18.9453 11.4167 19.3542 11.4167H19.3696C19.7785 11.4167 20.1706 11.2542 20.4597 10.9651C20.7489 10.676 20.9113 10.2839 20.9113 9.875C20.9113 9.46613 20.7489 9.074 20.4597 8.78488C20.1706 8.49576 19.7785 8.33333 19.3696 8.33333Z" fill="#00C04B"/>
</svg>
