<svg width="13" height="14" viewBox="0 0 13 14" fill="none" xmlns="http://www.w3.org/2000/svg">
<path d="M6.5 0.25C9.95187 0.25 12.75 3.04813 12.75 6.5C12.75 9.95187 9.95187 12.75 6.5 12.75C3.04813 12.75 0.25 9.95187 0.25 6.5C0.25 3.04813 3.04813 0.25 6.5 0.25ZM6.5 2.75C6.33424 2.75 6.17527 2.81585 6.05806 2.93306C5.94085 3.05027 5.875 3.20924 5.875 3.375V6.5C5.87504 6.66575 5.94091 6.82469 6.05813 6.94187L7.93313 8.81687C8.051 8.93072 8.20888 8.99372 8.37275 8.9923C8.53662 8.99087 8.69338 8.92514 8.80926 8.80926C8.92514 8.69338 8.99087 8.53662 8.9923 8.37275C8.99372 8.20888 8.93072 8.051 8.81687 7.93313L7.125 6.24125V3.375C7.125 3.20924 7.05915 3.05027 6.94194 2.93306C6.82473 2.81585 6.66576 2.75 6.5 2.75Z" fill="#00C04B"/>
</svg>
