<svg width="35" height="35" viewBox="0 0 35 35" fill="none" xmlns="http://www.w3.org/2000/svg">
<path fill-rule="evenodd" clip-rule="evenodd" d="M17.5 32.875C25.9913 32.875 32.875 25.9913 32.875 17.5C32.875 9.00875 25.9913 2.12502 17.5 2.12502C9.00875 2.12502 2.12502 9.00875 2.12502 17.5C2.12502 25.9913 9.00875 32.875 17.5 32.875ZM17.5 34.5834C26.9351 34.5834 34.5834 26.9351 34.5834 17.5C34.5834 8.0649 26.9351 0.416687 17.5 0.416687C8.0649 0.416687 0.416687 8.0649 0.416687 17.5C0.416687 26.9351 8.0649 34.5834 17.5 34.5834Z" fill="#00C04B"/>
<path fill-rule="evenodd" clip-rule="evenodd" d="M26.614 10.8879C26.782 11.0397 26.8829 11.2521 26.8944 11.4782C26.9059 11.7044 26.8272 11.9259 26.6755 12.094L15.2672 24.7024L8.36895 18.1176C8.21406 17.9593 8.1267 17.747 8.12532 17.5255C8.12394 17.3041 8.20864 17.0907 8.36155 16.9305C8.51446 16.7703 8.72362 16.6757 8.94492 16.6667C9.16622 16.6578 9.38234 16.7351 9.5477 16.8825L15.1767 22.2552L25.4087 10.9486C25.484 10.8654 25.575 10.7978 25.6764 10.7498C25.7778 10.7017 25.8877 10.6741 25.9998 10.6686C26.1119 10.663 26.224 10.6796 26.3296 10.7174C26.4353 10.7552 26.5325 10.8134 26.6157 10.8888" fill="#00C04B"/>
</svg>
