<svg width="36" height="35" viewBox="0 0 36 35" fill="none" xmlns="http://www.w3.org/2000/svg">
<path d="M11.1566 24.4363C10.9947 24.2744 10.9038 24.0549 10.9038 23.8259C10.9038 23.597 10.9947 23.3774 11.1566 23.2155L16.6511 17.721L11.1566 12.2265C10.9993 12.0636 10.9123 11.8456 10.9143 11.6192C10.9162 11.3928 11.007 11.1763 11.1671 11.0162C11.3272 10.8561 11.5437 10.7653 11.7701 10.7633C11.9965 10.7614 12.2146 10.8484 12.3774 11.0057L17.8719 16.5002L23.3665 11.0057C23.5293 10.8484 23.7474 10.7614 23.9738 10.7633C24.2001 10.7653 24.4167 10.8561 24.5768 11.0162C24.7368 11.1763 24.8276 11.3928 24.8296 11.6192C24.8316 11.8456 24.7445 12.0636 24.5873 12.2265L19.0927 17.721L24.5873 23.2155C24.7445 23.3784 24.8316 23.5965 24.8296 23.8228C24.8276 24.0492 24.7368 24.2657 24.5768 24.4258C24.4167 24.5859 24.2001 24.6767 23.9738 24.6787C23.7474 24.6806 23.5293 24.5936 23.3665 24.4363L17.8719 18.9418L12.3774 24.4363C12.2155 24.5982 11.9959 24.6891 11.767 24.6891C11.5381 24.6891 11.3185 24.5982 11.1566 24.4363Z" fill="#00C04B"/>
<path fill-rule="evenodd" clip-rule="evenodd" d="M17.872 34.9885C27.4088 34.9885 35.1395 27.2579 35.1395 17.721C35.1395 8.18416 27.4088 0.453491 17.872 0.453491C8.3351 0.453491 0.604431 8.18416 0.604431 17.721C0.604431 27.2579 8.3351 34.9885 17.872 34.9885ZM17.872 33.2618C26.4548 33.2618 33.4127 26.3038 33.4127 17.721C33.4127 9.13819 26.4548 2.18024 17.872 2.18024C9.28913 2.18024 2.33118 9.13819 2.33118 17.721C2.33118 26.3038 9.28913 33.2618 17.872 33.2618Z" fill="#00C04B"/>
</svg>
