<svg width="37" height="37" viewBox="0 0 37 37" fill="none" xmlns="http://www.w3.org/2000/svg">
<path d="M32.375 17.1279V7.70829C32.375 6.89054 32.0501 6.10628 31.4719 5.52805C30.8937 4.94981 30.1094 4.62496 29.2917 4.62496H22.8475C22.2 2.83663 20.5042 1.54163 18.5 1.54163C16.4958 1.54163 14.8 2.83663 14.1525 4.62496H7.70833C6.0125 4.62496 4.625 6.01246 4.625 7.70829V29.2916C4.625 30.1094 4.94985 30.8936 5.52809 31.4719C6.10632 32.0501 6.89058 32.375 7.70833 32.375H17.1279C19.0704 34.2866 21.7221 35.4583 24.6667 35.4583C30.6329 35.4583 35.4583 30.6329 35.4583 24.6666C35.4583 21.722 34.2867 19.0704 32.375 17.1279ZM18.5 4.62496C19.3479 4.62496 20.0417 5.31871 20.0417 6.16663C20.0417 7.01454 19.3479 7.70829 18.5 7.70829C17.6521 7.70829 16.9583 7.01454 16.9583 6.16663C16.9583 5.31871 17.6521 4.62496 18.5 4.62496ZM7.70833 29.2916V7.70829H10.7917V10.7916H26.2083V7.70829H29.2917V14.9233C27.8888 14.2604 26.3317 13.875 24.6667 13.875H10.7917V16.9583H17.1125C16.1875 17.837 15.4783 18.8854 14.9233 20.0416H10.7917V23.125H13.9983C13.9213 23.6337 13.875 24.1425 13.875 24.6666C13.875 26.3316 14.2604 27.8887 14.9233 29.2916H7.70833ZM24.6667 32.375C20.4117 32.375 16.9583 28.9216 16.9583 24.6666C16.9583 20.4116 20.4117 16.9583 24.6667 16.9583C28.9217 16.9583 32.375 20.4116 32.375 24.6666C32.375 28.9216 28.9217 32.375 24.6667 32.375ZM25.4375 25.052L29.8467 27.6575L28.6904 29.5383L23.125 26.2083V18.5H25.4375V25.052Z" fill="white"/>
</svg>
