<svg width="32" height="35" viewBox="0 0 32 35" fill="none" xmlns="http://www.w3.org/2000/svg">
<path d="M28.375 16.1279V6.70829C28.375 5.89054 28.0501 5.10628 27.4719 4.52805C26.8937 3.94981 26.1094 3.62496 25.2917 3.62496H18.8475C18.2 1.83663 16.5042 0.541626 14.5 0.541626C12.4958 0.541626 10.8 1.83663 10.1525 3.62496H3.70833C2.0125 3.62496 0.625 5.01246 0.625 6.70829V28.2916C0.625 29.1094 0.94985 29.8936 1.52809 30.4719C2.10632 31.0501 2.89058 31.375 3.70833 31.375H13.1279C15.0704 33.2866 17.7221 34.4583 20.6667 34.4583C26.6329 34.4583 31.4583 29.6329 31.4583 23.6666C31.4583 20.722 30.2867 18.0704 28.375 16.1279ZM14.5 3.62496C15.3479 3.62496 16.0417 4.31871 16.0417 5.16663C16.0417 6.01454 15.3479 6.70829 14.5 6.70829C13.6521 6.70829 12.9583 6.01454 12.9583 5.16663C12.9583 4.31871 13.6521 3.62496 14.5 3.62496ZM3.70833 28.2916V6.70829H6.79167V9.79163H22.2083V6.70829H25.2917V13.9233C23.8888 13.2604 22.3317 12.875 20.6667 12.875H6.79167V15.9583H13.1125C12.1875 16.837 11.4783 17.8854 10.9233 19.0416H6.79167V22.125H9.99833C9.92125 22.6337 9.875 23.1425 9.875 23.6666C9.875 25.3316 10.2604 26.8887 10.9233 28.2916H3.70833ZM20.6667 31.375C16.4117 31.375 12.9583 27.9216 12.9583 23.6666C12.9583 19.4116 16.4117 15.9583 20.6667 15.9583C24.9217 15.9583 28.375 19.4116 28.375 23.6666C28.375 27.9216 24.9217 31.375 20.6667 31.375ZM21.4375 24.052L25.8467 26.6575L24.6904 28.5383L19.125 25.2083V17.5H21.4375V24.052Z" fill="#00C04B"/>
</svg>
