<svg width="15" height="12" viewBox="0 0 15 12" fill="none" xmlns="http://www.w3.org/2000/svg">
<path d="M15 1.8125V11.1875H0.9375V9.3125H0V0.875H13.125V1.8125H15ZM11.25 1.8125C11.25 1.94434 11.2744 2.06641 11.3232 2.17871C11.3721 2.29102 11.438 2.38867 11.521 2.47168C11.604 2.55469 11.7041 2.62305 11.8213 2.67676C11.9385 2.73047 12.0605 2.75488 12.1875 2.75V1.8125H11.25ZM0.9375 2.75C1.06934 2.75 1.19141 2.72559 1.30371 2.67676C1.41602 2.62793 1.51367 2.56201 1.59668 2.479C1.67969 2.396 1.74805 2.2959 1.80176 2.17871C1.85547 2.06152 1.87988 1.93945 1.875 1.8125H0.9375V2.75ZM0.9375 6.5C1.19629 6.5 1.43799 6.54883 1.6626 6.64648C1.88721 6.74414 2.0874 6.87842 2.26318 7.04932C2.43896 7.22021 2.57324 7.41797 2.66602 7.64258C2.75879 7.86719 2.80762 8.11133 2.8125 8.375H10.3125C10.3125 8.11621 10.3613 7.87451 10.459 7.6499C10.5566 7.42529 10.6909 7.2251 10.8618 7.04932C11.0327 6.87354 11.2305 6.73926 11.4551 6.64648C11.6797 6.55371 11.9238 6.50488 12.1875 6.5V3.6875C11.9287 3.6875 11.687 3.63867 11.4624 3.54102C11.2378 3.44336 11.0376 3.30908 10.8618 3.13818C10.686 2.96729 10.5518 2.76953 10.459 2.54492C10.3662 2.32031 10.3174 2.07617 10.3125 1.8125H2.8125C2.8125 2.07129 2.76367 2.31299 2.66602 2.5376C2.56836 2.76221 2.43408 2.9624 2.26318 3.13818C2.09229 3.31396 1.89453 3.44824 1.66992 3.54102C1.44531 3.63379 1.20117 3.68262 0.9375 3.6875V6.5ZM12.1875 7.4375C12.0557 7.4375 11.9336 7.46191 11.8213 7.51074C11.709 7.55957 11.6113 7.62549 11.5283 7.7085C11.4453 7.7915 11.377 7.8916 11.3232 8.00879C11.2695 8.12598 11.2451 8.24805 11.25 8.375H12.1875V7.4375ZM0.9375 8.375H1.875C1.875 8.24316 1.85059 8.12109 1.80176 8.00879C1.75293 7.89648 1.68701 7.79883 1.604 7.71582C1.521 7.63281 1.4209 7.56445 1.30371 7.51074C1.18652 7.45703 1.06445 7.43262 0.9375 7.4375V8.375ZM14.0625 2.75H13.125V9.3125H1.875V10.25H14.0625V2.75ZM3.28125 5.5625C3.1543 5.5625 3.04443 5.51611 2.95166 5.42334C2.85889 5.33057 2.8125 5.2207 2.8125 5.09375C2.8125 4.9668 2.85889 4.85693 2.95166 4.76416C3.04443 4.67139 3.1543 4.625 3.28125 4.625C3.4082 4.625 3.51807 4.67139 3.61084 4.76416C3.70361 4.85693 3.75 4.9668 3.75 5.09375C3.75 5.2207 3.70361 5.33057 3.61084 5.42334C3.51807 5.51611 3.4082 5.5625 3.28125 5.5625ZM9.84375 5.5625C9.7168 5.5625 9.60693 5.51611 9.51416 5.42334C9.42139 5.33057 9.375 5.2207 9.375 5.09375C9.375 4.9668 9.42139 4.85693 9.51416 4.76416C9.60693 4.67139 9.7168 4.625 9.84375 4.625C9.9707 4.625 10.0806 4.67139 10.1733 4.76416C10.2661 4.85693 10.3125 4.9668 10.3125 5.09375C10.3125 5.2207 10.2661 5.33057 10.1733 5.42334C10.0806 5.51611 9.9707 5.5625 9.84375 5.5625ZM6.5625 7.4375C6.30371 7.4375 6.06201 7.38867 5.8374 7.29102C5.61279 7.19336 5.4126 7.05908 5.23682 6.88818C5.06104 6.71729 4.92676 6.51953 4.83398 6.29492C4.74121 6.07031 4.69238 5.82617 4.6875 5.5625V4.625C4.6875 4.36621 4.73633 4.12451 4.83398 3.8999C4.93164 3.67529 5.06592 3.4751 5.23682 3.29932C5.40771 3.12354 5.60547 2.98926 5.83008 2.89648C6.05469 2.80371 6.29883 2.75488 6.5625 2.75C6.82129 2.75 7.06299 2.79883 7.2876 2.89648C7.51221 2.99414 7.7124 3.12842 7.88818 3.29932C8.06396 3.47021 8.19824 3.66797 8.29102 3.89258C8.38379 4.11719 8.43262 4.36133 8.4375 4.625V5.5625C8.4375 5.82129 8.38867 6.06299 8.29102 6.2876C8.19336 6.51221 8.05908 6.7124 7.88818 6.88818C7.71729 7.06396 7.51953 7.19824 7.29492 7.29102C7.07031 7.38379 6.82617 7.43262 6.5625 7.4375ZM5.625 5.5625C5.625 5.69434 5.64941 5.81641 5.69824 5.92871C5.74707 6.04102 5.81299 6.13867 5.896 6.22168C5.979 6.30469 6.0791 6.37305 6.19629 6.42676C6.31348 6.48047 6.43555 6.50488 6.5625 6.5C6.69434 6.5 6.81641 6.47559 6.92871 6.42676C7.04102 6.37793 7.13867 6.31201 7.22168 6.229C7.30469 6.146 7.37305 6.0459 7.42676 5.92871C7.48047 5.81152 7.50488 5.68945 7.5 5.5625V4.625C7.5 4.49316 7.47559 4.37109 7.42676 4.25879C7.37793 4.14648 7.31201 4.04883 7.229 3.96582C7.146 3.88281 7.0459 3.81445 6.92871 3.76074C6.81152 3.70703 6.68945 3.68262 6.5625 3.6875C6.43066 3.6875 6.30859 3.71191 6.19629 3.76074C6.08398 3.80957 5.98633 3.87549 5.90332 3.9585C5.82031 4.0415 5.75195 4.1416 5.69824 4.25879C5.64453 4.37598 5.62012 4.49805 5.625 4.625V5.5625Z" fill="#00C04B"/>
</svg>
