<svg width="15" height="15" viewBox="0 0 15 15" fill="none" xmlns="http://www.w3.org/2000/svg">
<path d="M1.80092 9.65346C1.83514 8.50315 1.20936 8.07003 0.44623 7.78385C0.192636 8.768 0.89248 9.5869 1.80092 9.65346ZM1.97365 4.51714C2.46021 3.47534 2.05709 2.82706 1.4674 2.26292C0.848418 3.06729 1.1667 4.09573 1.97365 4.51714ZM2.24811 7.41729C2.21459 6.26768 2.83967 5.83268 3.60326 5.54768C3.85592 6.53135 3.15654 7.35003 2.24811 7.41729ZM2.24811 9.19034C2.21459 8.04073 2.83967 7.6069 3.60326 7.3212C3.85592 8.30464 3.15654 9.12354 2.24811 9.19034ZM2.24811 5.64495C2.21459 4.49487 2.83967 4.05987 3.60326 3.77417C3.85592 4.75878 3.15654 5.57721 2.24811 5.64495ZM1.80092 7.88065C1.83514 6.73104 1.20936 6.29604 0.44623 6.01104C0.192636 6.99471 0.89248 7.81362 1.80092 7.88065ZM1.80092 6.10831C1.83514 4.958 1.20936 4.52323 0.44623 4.23706C0.192636 5.22214 0.89248 6.03987 1.80092 6.10831ZM10.4187 14.7818H4.25201L7.33568 9.43901L10.4187 14.7818ZM5.47709 14.0742H9.19381L7.33545 10.8551L5.47709 14.0742ZM0.900683 11.1422L13.965 7.58815L13.7709 6.87026L0.705683 10.4248L0.900683 11.1422ZM10.1194 0.148621C10.1194 0.148621 10.215 2.03323 11.8669 1.87339C11.8669 1.87339 12.0532 0.298855 10.1194 0.148621ZM11.8488 6.27823C11.7601 6.40302 11.6427 6.50469 11.5065 6.57468C11.3703 6.64467 11.2193 6.68093 11.0662 6.68042C10.803 6.68042 10.5452 6.55667 10.3713 6.38323C10.0155 5.9951 9.55428 5.12745 9.55428 5.12745C9.29576 4.60268 9.15725 4.19675 9.15725 3.78636C9.15725 2.91214 9.86482 2.15393 10.7414 2.15393C11.1556 2.15365 11.5534 2.3161 11.849 2.60628C12.1444 2.316 12.5421 2.15352 12.9562 2.15393C13.8326 2.15393 14.5401 2.91214 14.5401 3.78636C14.5401 4.19675 14.4014 4.60268 14.1431 5.12745C14.1431 5.12745 13.6819 5.99487 13.3261 6.38323C13.1522 6.55667 12.8944 6.68042 12.6309 6.68042C12.4778 6.68089 12.3269 6.64461 12.1908 6.57462C12.0546 6.50464 11.9375 6.40299 11.8488 6.27823Z" fill="#00C04B"/>
</svg>
