<svg width="68" height="56" viewBox="0 0 68 56" fill="none" xmlns="http://www.w3.org/2000/svg">
<path d="M11.1905 11.1905H16.7857V44.7619H11.1905V11.1905ZM19.5833 11.1905H22.381V44.7619H19.5833V11.1905ZM25.1786 11.1905H33.5714V44.7619H25.1786V11.1905ZM36.369 11.1905H39.1667V44.7619H36.369V11.1905ZM44.7619 11.1905H50.3571V44.7619H44.7619V11.1905ZM53.1548 11.1905H55.9524V44.7619H53.1548V11.1905ZM5.59524 5.59524V16.7857H0V5.59524C0 4.11129 0.589497 2.68812 1.63881 1.63881C2.68812 0.589496 4.11129 0 5.59524 0H16.7857V5.59524H5.59524ZM61.5476 0C63.0316 0 64.4547 0.589496 65.5041 1.63881C66.5534 2.68812 67.1429 4.11129 67.1429 5.59524V16.7857H61.5476V5.59524H50.3571V0H61.5476ZM5.59524 39.1667V50.3571H16.7857V55.9524H5.59524C4.11129 55.9524 2.68812 55.3629 1.63881 54.3136C0.589497 53.2643 0 51.8411 0 50.3571V39.1667H5.59524ZM61.5476 50.3571V39.1667H67.1429V50.3571C67.1429 51.8411 66.5534 53.2643 65.5041 54.3136C64.4547 55.3629 63.0316 55.9524 61.5476 55.9524H50.3571V50.3571H61.5476Z" fill="white"/>
</svg>
