<svg width="13" height="15" viewBox="0 0 13 15" fill="none" xmlns="http://www.w3.org/2000/svg">
<path d="M2.82442 10.4974C2.44854 10.5524 1.82979 10.655 1.41817 10.188C1.00655 9.72099 0.650592 8.59336 0.494146 7.58554C0.263287 6.10019 0.492389 4.84834 1.13868 4.06084C1.51954 3.59707 2.01934 3.32841 2.58419 3.28564C3.06788 3.24843 3.79063 3.43769 4.48848 4.55097C4.92559 5.24853 5.25811 6.17519 5.40079 7.09306C5.57305 8.20107 5.74092 9.38349 5.15352 9.80742C4.82217 10.0468 4.58428 10.1297 4.02208 10.2636C3.55977 10.3734 3.20059 10.442 2.82442 10.4974ZM2.15587 11.4504L5.346 10.7924C5.61553 10.7367 5.83174 10.885 5.93194 11.3291C6.26065 12.7869 5.78956 14.5312 4.31417 14.5312C2.917 14.5312 1.98594 12.9387 1.83389 12.0826C1.76446 11.6944 1.86348 11.5104 2.15587 11.4504ZM8.97823 7.45136C8.41602 7.31806 8.17813 7.23457 7.84678 6.99521C7.25938 6.57129 7.42725 5.38886 7.59952 4.28086C7.74219 3.36298 8.07471 2.43515 8.51182 1.73877C9.20909 0.625485 9.93184 0.436227 10.4161 0.473434C10.9804 0.516501 11.4805 0.784567 11.8613 1.24834C12.5082 2.03584 12.7373 3.28769 12.5059 4.77304C12.3491 5.78086 11.9943 6.90468 11.5804 7.37548C11.1664 7.84629 10.5512 7.73994 10.1741 7.68486C9.79708 7.62978 9.44024 7.56093 8.97823 7.45136ZM10.8441 8.63789L7.65401 7.97988C7.38448 7.92422 7.16827 8.07246 7.06807 8.5166C6.73966 9.97441 7.21075 11.7187 8.68614 11.7187C10.0833 11.7187 11.0144 10.1262 11.1664 9.27011C11.2356 8.88193 11.1365 8.69795 10.8441 8.63789Z" fill="#00C04B"/>
</svg>
